<mxfile host="app.diagrams.net" modified="2021-03-11T09:33:35.055Z" agent="5.0 (Windows NT 10.0; WOW64) AppleWebKit/537.36 (KHTML, like Gecko) coc_coc_browser/93.0.148 Chrome/87.0.4280.148 Safari/537.36" etag="96RxJKsoJzQkAaGI2S04" version="14.2.9" type="github">
  <diagram id="L4nRo71SEryxdi8W1xf2" name="Page-1">
    <mxGraphModel dx="1038" dy="2909" grid="1" gridSize="10" guides="1" tooltips="1" connect="1" arrows="1" fold="1" page="1" pageScale="1" pageWidth="1654" pageHeight="2336" math="0" shadow="0">
      <root>
        <mxCell id="0" />
        <mxCell id="1" parent="0" />
        <mxCell id="xWYTEu3ynr3bzuGR5dAI-13" value="Account" style="shape=table;startSize=30;container=1;collapsible=1;childLayout=tableLayout;fixedRows=1;rowLines=0;fontStyle=1;align=center;resizeLast=1;" vertex="1" parent="1">
          <mxGeometry x="500" y="-20" width="180" height="160" as="geometry" />
        </mxCell>
        <mxCell id="xWYTEu3ynr3bzuGR5dAI-14" value="" style="shape=partialRectangle;collapsible=0;dropTarget=0;pointerEvents=0;fillColor=none;top=0;left=0;bottom=1;right=0;points=[[0,0.5],[1,0.5]];portConstraint=eastwest;" vertex="1" parent="xWYTEu3ynr3bzuGR5dAI-13">
          <mxGeometry y="30" width="180" height="30" as="geometry" />
        </mxCell>
        <mxCell id="xWYTEu3ynr3bzuGR5dAI-15" value="PK" style="shape=partialRectangle;connectable=0;fillColor=none;top=0;left=0;bottom=0;right=0;fontStyle=1;overflow=hidden;" vertex="1" parent="xWYTEu3ynr3bzuGR5dAI-14">
          <mxGeometry width="30" height="30" as="geometry" />
        </mxCell>
        <mxCell id="xWYTEu3ynr3bzuGR5dAI-16" value="UniqueID" style="shape=partialRectangle;connectable=0;fillColor=none;top=0;left=0;bottom=0;right=0;align=left;spacingLeft=6;fontStyle=5;overflow=hidden;" vertex="1" parent="xWYTEu3ynr3bzuGR5dAI-14">
          <mxGeometry x="30" width="150" height="30" as="geometry" />
        </mxCell>
        <mxCell id="xWYTEu3ynr3bzuGR5dAI-17" value="" style="shape=partialRectangle;collapsible=0;dropTarget=0;pointerEvents=0;fillColor=none;top=0;left=0;bottom=0;right=0;points=[[0,0.5],[1,0.5]];portConstraint=eastwest;" vertex="1" parent="xWYTEu3ynr3bzuGR5dAI-13">
          <mxGeometry y="60" width="180" height="30" as="geometry" />
        </mxCell>
        <mxCell id="xWYTEu3ynr3bzuGR5dAI-18" value="" style="shape=partialRectangle;connectable=0;fillColor=none;top=0;left=0;bottom=0;right=0;editable=1;overflow=hidden;" vertex="1" parent="xWYTEu3ynr3bzuGR5dAI-17">
          <mxGeometry width="30" height="30" as="geometry" />
        </mxCell>
        <mxCell id="xWYTEu3ynr3bzuGR5dAI-19" value="username" style="shape=partialRectangle;connectable=0;fillColor=none;top=0;left=0;bottom=0;right=0;align=left;spacingLeft=6;overflow=hidden;" vertex="1" parent="xWYTEu3ynr3bzuGR5dAI-17">
          <mxGeometry x="30" width="150" height="30" as="geometry" />
        </mxCell>
        <mxCell id="xWYTEu3ynr3bzuGR5dAI-20" value="" style="shape=partialRectangle;collapsible=0;dropTarget=0;pointerEvents=0;fillColor=none;top=0;left=0;bottom=0;right=0;points=[[0,0.5],[1,0.5]];portConstraint=eastwest;" vertex="1" parent="xWYTEu3ynr3bzuGR5dAI-13">
          <mxGeometry y="90" width="180" height="30" as="geometry" />
        </mxCell>
        <mxCell id="xWYTEu3ynr3bzuGR5dAI-21" value="" style="shape=partialRectangle;connectable=0;fillColor=none;top=0;left=0;bottom=0;right=0;editable=1;overflow=hidden;" vertex="1" parent="xWYTEu3ynr3bzuGR5dAI-20">
          <mxGeometry width="30" height="30" as="geometry" />
        </mxCell>
        <mxCell id="xWYTEu3ynr3bzuGR5dAI-22" value="password" style="shape=partialRectangle;connectable=0;fillColor=none;top=0;left=0;bottom=0;right=0;align=left;spacingLeft=6;overflow=hidden;" vertex="1" parent="xWYTEu3ynr3bzuGR5dAI-20">
          <mxGeometry x="30" width="150" height="30" as="geometry" />
        </mxCell>
        <mxCell id="xWYTEu3ynr3bzuGR5dAI-23" value="" style="shape=partialRectangle;collapsible=0;dropTarget=0;pointerEvents=0;fillColor=none;top=0;left=0;bottom=0;right=0;points=[[0,0.5],[1,0.5]];portConstraint=eastwest;" vertex="1" parent="xWYTEu3ynr3bzuGR5dAI-13">
          <mxGeometry y="120" width="180" height="30" as="geometry" />
        </mxCell>
        <mxCell id="xWYTEu3ynr3bzuGR5dAI-24" value="" style="shape=partialRectangle;connectable=0;fillColor=none;top=0;left=0;bottom=0;right=0;editable=1;overflow=hidden;" vertex="1" parent="xWYTEu3ynr3bzuGR5dAI-23">
          <mxGeometry width="30" height="30" as="geometry" />
        </mxCell>
        <mxCell id="xWYTEu3ynr3bzuGR5dAI-25" value="" style="shape=partialRectangle;connectable=0;fillColor=none;top=0;left=0;bottom=0;right=0;align=left;spacingLeft=6;overflow=hidden;" vertex="1" parent="xWYTEu3ynr3bzuGR5dAI-23">
          <mxGeometry x="30" width="150" height="30" as="geometry" />
        </mxCell>
        <mxCell id="xWYTEu3ynr3bzuGR5dAI-26" value="Role" style="shape=table;startSize=30;container=1;collapsible=1;childLayout=tableLayout;fixedRows=1;rowLines=0;fontStyle=1;align=center;resizeLast=1;" vertex="1" parent="1">
          <mxGeometry x="830" y="-20" width="180" height="160" as="geometry" />
        </mxCell>
        <mxCell id="xWYTEu3ynr3bzuGR5dAI-27" value="" style="shape=partialRectangle;collapsible=0;dropTarget=0;pointerEvents=0;fillColor=none;top=0;left=0;bottom=1;right=0;points=[[0,0.5],[1,0.5]];portConstraint=eastwest;" vertex="1" parent="xWYTEu3ynr3bzuGR5dAI-26">
          <mxGeometry y="30" width="180" height="30" as="geometry" />
        </mxCell>
        <mxCell id="xWYTEu3ynr3bzuGR5dAI-28" value="PK" style="shape=partialRectangle;connectable=0;fillColor=none;top=0;left=0;bottom=0;right=0;fontStyle=1;overflow=hidden;" vertex="1" parent="xWYTEu3ynr3bzuGR5dAI-27">
          <mxGeometry width="30" height="30" as="geometry" />
        </mxCell>
        <mxCell id="xWYTEu3ynr3bzuGR5dAI-29" value="UniqueID" style="shape=partialRectangle;connectable=0;fillColor=none;top=0;left=0;bottom=0;right=0;align=left;spacingLeft=6;fontStyle=5;overflow=hidden;" vertex="1" parent="xWYTEu3ynr3bzuGR5dAI-27">
          <mxGeometry x="30" width="150" height="30" as="geometry" />
        </mxCell>
        <mxCell id="xWYTEu3ynr3bzuGR5dAI-30" value="" style="shape=partialRectangle;collapsible=0;dropTarget=0;pointerEvents=0;fillColor=none;top=0;left=0;bottom=0;right=0;points=[[0,0.5],[1,0.5]];portConstraint=eastwest;" vertex="1" parent="xWYTEu3ynr3bzuGR5dAI-26">
          <mxGeometry y="60" width="180" height="30" as="geometry" />
        </mxCell>
        <mxCell id="xWYTEu3ynr3bzuGR5dAI-31" value="" style="shape=partialRectangle;connectable=0;fillColor=none;top=0;left=0;bottom=0;right=0;editable=1;overflow=hidden;" vertex="1" parent="xWYTEu3ynr3bzuGR5dAI-30">
          <mxGeometry width="30" height="30" as="geometry" />
        </mxCell>
        <mxCell id="xWYTEu3ynr3bzuGR5dAI-32" value="id" style="shape=partialRectangle;connectable=0;fillColor=none;top=0;left=0;bottom=0;right=0;align=left;spacingLeft=6;overflow=hidden;" vertex="1" parent="xWYTEu3ynr3bzuGR5dAI-30">
          <mxGeometry x="30" width="150" height="30" as="geometry" />
        </mxCell>
        <mxCell id="xWYTEu3ynr3bzuGR5dAI-33" value="" style="shape=partialRectangle;collapsible=0;dropTarget=0;pointerEvents=0;fillColor=none;top=0;left=0;bottom=0;right=0;points=[[0,0.5],[1,0.5]];portConstraint=eastwest;" vertex="1" parent="xWYTEu3ynr3bzuGR5dAI-26">
          <mxGeometry y="90" width="180" height="30" as="geometry" />
        </mxCell>
        <mxCell id="xWYTEu3ynr3bzuGR5dAI-34" value="" style="shape=partialRectangle;connectable=0;fillColor=none;top=0;left=0;bottom=0;right=0;editable=1;overflow=hidden;" vertex="1" parent="xWYTEu3ynr3bzuGR5dAI-33">
          <mxGeometry width="30" height="30" as="geometry" />
        </mxCell>
        <mxCell id="xWYTEu3ynr3bzuGR5dAI-35" value="name" style="shape=partialRectangle;connectable=0;fillColor=none;top=0;left=0;bottom=0;right=0;align=left;spacingLeft=6;overflow=hidden;" vertex="1" parent="xWYTEu3ynr3bzuGR5dAI-33">
          <mxGeometry x="30" width="150" height="30" as="geometry" />
        </mxCell>
        <mxCell id="xWYTEu3ynr3bzuGR5dAI-36" value="" style="shape=partialRectangle;collapsible=0;dropTarget=0;pointerEvents=0;fillColor=none;top=0;left=0;bottom=0;right=0;points=[[0,0.5],[1,0.5]];portConstraint=eastwest;" vertex="1" parent="xWYTEu3ynr3bzuGR5dAI-26">
          <mxGeometry y="120" width="180" height="30" as="geometry" />
        </mxCell>
        <mxCell id="xWYTEu3ynr3bzuGR5dAI-37" value="" style="shape=partialRectangle;connectable=0;fillColor=none;top=0;left=0;bottom=0;right=0;editable=1;overflow=hidden;" vertex="1" parent="xWYTEu3ynr3bzuGR5dAI-36">
          <mxGeometry width="30" height="30" as="geometry" />
        </mxCell>
        <mxCell id="xWYTEu3ynr3bzuGR5dAI-38" value="" style="shape=partialRectangle;connectable=0;fillColor=none;top=0;left=0;bottom=0;right=0;align=left;spacingLeft=6;overflow=hidden;" vertex="1" parent="xWYTEu3ynr3bzuGR5dAI-36">
          <mxGeometry x="30" width="150" height="30" as="geometry" />
        </mxCell>
        <mxCell id="xWYTEu3ynr3bzuGR5dAI-39" value="Teacher" style="shape=table;startSize=30;container=1;collapsible=1;childLayout=tableLayout;fixedRows=1;rowLines=0;fontStyle=1;align=center;resizeLast=1;" vertex="1" parent="1">
          <mxGeometry x="660" y="-462" width="180" height="341" as="geometry" />
        </mxCell>
        <mxCell id="xWYTEu3ynr3bzuGR5dAI-40" value="" style="shape=partialRectangle;collapsible=0;dropTarget=0;pointerEvents=0;fillColor=none;top=0;left=0;bottom=1;right=0;points=[[0,0.5],[1,0.5]];portConstraint=eastwest;" vertex="1" parent="xWYTEu3ynr3bzuGR5dAI-39">
          <mxGeometry y="30" width="180" height="30" as="geometry" />
        </mxCell>
        <mxCell id="xWYTEu3ynr3bzuGR5dAI-41" value="PK" style="shape=partialRectangle;connectable=0;fillColor=none;top=0;left=0;bottom=0;right=0;fontStyle=1;overflow=hidden;" vertex="1" parent="xWYTEu3ynr3bzuGR5dAI-40">
          <mxGeometry width="30" height="30" as="geometry" />
        </mxCell>
        <mxCell id="xWYTEu3ynr3bzuGR5dAI-42" value="UniqueID" style="shape=partialRectangle;connectable=0;fillColor=none;top=0;left=0;bottom=0;right=0;align=left;spacingLeft=6;fontStyle=5;overflow=hidden;" vertex="1" parent="xWYTEu3ynr3bzuGR5dAI-40">
          <mxGeometry x="30" width="150" height="30" as="geometry" />
        </mxCell>
        <mxCell id="xWYTEu3ynr3bzuGR5dAI-43" value="" style="shape=partialRectangle;collapsible=0;dropTarget=0;pointerEvents=0;fillColor=none;top=0;left=0;bottom=0;right=0;points=[[0,0.5],[1,0.5]];portConstraint=eastwest;" vertex="1" parent="xWYTEu3ynr3bzuGR5dAI-39">
          <mxGeometry y="60" width="180" height="30" as="geometry" />
        </mxCell>
        <mxCell id="xWYTEu3ynr3bzuGR5dAI-44" value="" style="shape=partialRectangle;connectable=0;fillColor=none;top=0;left=0;bottom=0;right=0;editable=1;overflow=hidden;" vertex="1" parent="xWYTEu3ynr3bzuGR5dAI-43">
          <mxGeometry width="30" height="30" as="geometry" />
        </mxCell>
        <mxCell id="xWYTEu3ynr3bzuGR5dAI-45" value="name" style="shape=partialRectangle;connectable=0;fillColor=none;top=0;left=0;bottom=0;right=0;align=left;spacingLeft=6;overflow=hidden;" vertex="1" parent="xWYTEu3ynr3bzuGR5dAI-43">
          <mxGeometry x="30" width="150" height="30" as="geometry" />
        </mxCell>
        <mxCell id="xWYTEu3ynr3bzuGR5dAI-46" value="" style="shape=partialRectangle;collapsible=0;dropTarget=0;pointerEvents=0;fillColor=none;top=0;left=0;bottom=0;right=0;points=[[0,0.5],[1,0.5]];portConstraint=eastwest;" vertex="1" parent="xWYTEu3ynr3bzuGR5dAI-39">
          <mxGeometry y="90" width="180" height="30" as="geometry" />
        </mxCell>
        <mxCell id="xWYTEu3ynr3bzuGR5dAI-47" value="" style="shape=partialRectangle;connectable=0;fillColor=none;top=0;left=0;bottom=0;right=0;editable=1;overflow=hidden;" vertex="1" parent="xWYTEu3ynr3bzuGR5dAI-46">
          <mxGeometry width="30" height="30" as="geometry" />
        </mxCell>
        <mxCell id="xWYTEu3ynr3bzuGR5dAI-48" value="date_of_birth" style="shape=partialRectangle;connectable=0;fillColor=none;top=0;left=0;bottom=0;right=0;align=left;spacingLeft=6;overflow=hidden;" vertex="1" parent="xWYTEu3ynr3bzuGR5dAI-46">
          <mxGeometry x="30" width="150" height="30" as="geometry" />
        </mxCell>
        <mxCell id="xWYTEu3ynr3bzuGR5dAI-49" value="" style="shape=partialRectangle;collapsible=0;dropTarget=0;pointerEvents=0;fillColor=none;top=0;left=0;bottom=0;right=0;points=[[0,0.5],[1,0.5]];portConstraint=eastwest;" vertex="1" parent="xWYTEu3ynr3bzuGR5dAI-39">
          <mxGeometry y="120" width="180" height="30" as="geometry" />
        </mxCell>
        <mxCell id="xWYTEu3ynr3bzuGR5dAI-50" value="" style="shape=partialRectangle;connectable=0;fillColor=none;top=0;left=0;bottom=0;right=0;editable=1;overflow=hidden;" vertex="1" parent="xWYTEu3ynr3bzuGR5dAI-49">
          <mxGeometry width="30" height="30" as="geometry" />
        </mxCell>
        <mxCell id="xWYTEu3ynr3bzuGR5dAI-51" value="address" style="shape=partialRectangle;connectable=0;fillColor=none;top=0;left=0;bottom=0;right=0;align=left;spacingLeft=6;overflow=hidden;" vertex="1" parent="xWYTEu3ynr3bzuGR5dAI-49">
          <mxGeometry x="30" width="150" height="30" as="geometry" />
        </mxCell>
        <mxCell id="xWYTEu3ynr3bzuGR5dAI-54" value="email" style="shape=partialRectangle;connectable=0;fillColor=none;top=0;left=0;bottom=0;right=0;align=left;spacingLeft=6;overflow=hidden;" vertex="1" parent="1">
          <mxGeometry x="690" y="-313" width="150" height="30" as="geometry" />
        </mxCell>
        <mxCell id="xWYTEu3ynr3bzuGR5dAI-55" value="phone" style="shape=partialRectangle;connectable=0;fillColor=none;top=0;left=0;bottom=0;right=0;align=left;spacingLeft=6;overflow=hidden;" vertex="1" parent="1">
          <mxGeometry x="690" y="-283" width="150" height="30" as="geometry" />
        </mxCell>
        <mxCell id="xWYTEu3ynr3bzuGR5dAI-56" value="avatar" style="shape=partialRectangle;connectable=0;fillColor=none;top=0;left=0;bottom=0;right=0;align=left;spacingLeft=6;overflow=hidden;" vertex="1" parent="1">
          <mxGeometry x="690" y="-253" width="150" height="30" as="geometry" />
        </mxCell>
        <mxCell id="xWYTEu3ynr3bzuGR5dAI-57" value="account_id" style="shape=partialRectangle;connectable=0;fillColor=none;top=0;left=0;bottom=0;right=0;align=left;spacingLeft=6;overflow=hidden;" vertex="1" parent="1">
          <mxGeometry x="690" y="-223" width="150" height="30" as="geometry" />
        </mxCell>
        <mxCell id="xWYTEu3ynr3bzuGR5dAI-58" value="Student" style="shape=table;startSize=30;container=1;collapsible=1;childLayout=tableLayout;fixedRows=1;rowLines=0;fontStyle=1;align=center;resizeLast=1;" vertex="1" parent="1">
          <mxGeometry x="330" y="-462" width="180" height="341" as="geometry" />
        </mxCell>
        <mxCell id="xWYTEu3ynr3bzuGR5dAI-59" value="" style="shape=partialRectangle;collapsible=0;dropTarget=0;pointerEvents=0;fillColor=none;top=0;left=0;bottom=1;right=0;points=[[0,0.5],[1,0.5]];portConstraint=eastwest;" vertex="1" parent="xWYTEu3ynr3bzuGR5dAI-58">
          <mxGeometry y="30" width="180" height="30" as="geometry" />
        </mxCell>
        <mxCell id="xWYTEu3ynr3bzuGR5dAI-60" value="PK" style="shape=partialRectangle;connectable=0;fillColor=none;top=0;left=0;bottom=0;right=0;fontStyle=1;overflow=hidden;" vertex="1" parent="xWYTEu3ynr3bzuGR5dAI-59">
          <mxGeometry width="30" height="30" as="geometry" />
        </mxCell>
        <mxCell id="xWYTEu3ynr3bzuGR5dAI-61" value="UniqueID" style="shape=partialRectangle;connectable=0;fillColor=none;top=0;left=0;bottom=0;right=0;align=left;spacingLeft=6;fontStyle=5;overflow=hidden;" vertex="1" parent="xWYTEu3ynr3bzuGR5dAI-59">
          <mxGeometry x="30" width="150" height="30" as="geometry" />
        </mxCell>
        <mxCell id="xWYTEu3ynr3bzuGR5dAI-62" value="" style="shape=partialRectangle;collapsible=0;dropTarget=0;pointerEvents=0;fillColor=none;top=0;left=0;bottom=0;right=0;points=[[0,0.5],[1,0.5]];portConstraint=eastwest;" vertex="1" parent="xWYTEu3ynr3bzuGR5dAI-58">
          <mxGeometry y="60" width="180" height="30" as="geometry" />
        </mxCell>
        <mxCell id="xWYTEu3ynr3bzuGR5dAI-63" value="" style="shape=partialRectangle;connectable=0;fillColor=none;top=0;left=0;bottom=0;right=0;editable=1;overflow=hidden;" vertex="1" parent="xWYTEu3ynr3bzuGR5dAI-62">
          <mxGeometry width="30" height="30" as="geometry" />
        </mxCell>
        <mxCell id="xWYTEu3ynr3bzuGR5dAI-64" value="name" style="shape=partialRectangle;connectable=0;fillColor=none;top=0;left=0;bottom=0;right=0;align=left;spacingLeft=6;overflow=hidden;" vertex="1" parent="xWYTEu3ynr3bzuGR5dAI-62">
          <mxGeometry x="30" width="150" height="30" as="geometry" />
        </mxCell>
        <mxCell id="xWYTEu3ynr3bzuGR5dAI-65" value="" style="shape=partialRectangle;collapsible=0;dropTarget=0;pointerEvents=0;fillColor=none;top=0;left=0;bottom=0;right=0;points=[[0,0.5],[1,0.5]];portConstraint=eastwest;" vertex="1" parent="xWYTEu3ynr3bzuGR5dAI-58">
          <mxGeometry y="90" width="180" height="30" as="geometry" />
        </mxCell>
        <mxCell id="xWYTEu3ynr3bzuGR5dAI-66" value="" style="shape=partialRectangle;connectable=0;fillColor=none;top=0;left=0;bottom=0;right=0;editable=1;overflow=hidden;" vertex="1" parent="xWYTEu3ynr3bzuGR5dAI-65">
          <mxGeometry width="30" height="30" as="geometry" />
        </mxCell>
        <mxCell id="xWYTEu3ynr3bzuGR5dAI-67" value="date_of_birth" style="shape=partialRectangle;connectable=0;fillColor=none;top=0;left=0;bottom=0;right=0;align=left;spacingLeft=6;overflow=hidden;" vertex="1" parent="xWYTEu3ynr3bzuGR5dAI-65">
          <mxGeometry x="30" width="150" height="30" as="geometry" />
        </mxCell>
        <mxCell id="xWYTEu3ynr3bzuGR5dAI-68" value="" style="shape=partialRectangle;collapsible=0;dropTarget=0;pointerEvents=0;fillColor=none;top=0;left=0;bottom=0;right=0;points=[[0,0.5],[1,0.5]];portConstraint=eastwest;" vertex="1" parent="xWYTEu3ynr3bzuGR5dAI-58">
          <mxGeometry y="120" width="180" height="30" as="geometry" />
        </mxCell>
        <mxCell id="xWYTEu3ynr3bzuGR5dAI-69" value="" style="shape=partialRectangle;connectable=0;fillColor=none;top=0;left=0;bottom=0;right=0;editable=1;overflow=hidden;" vertex="1" parent="xWYTEu3ynr3bzuGR5dAI-68">
          <mxGeometry width="30" height="30" as="geometry" />
        </mxCell>
        <mxCell id="xWYTEu3ynr3bzuGR5dAI-70" value="address" style="shape=partialRectangle;connectable=0;fillColor=none;top=0;left=0;bottom=0;right=0;align=left;spacingLeft=6;overflow=hidden;" vertex="1" parent="xWYTEu3ynr3bzuGR5dAI-68">
          <mxGeometry x="30" width="150" height="30" as="geometry" />
        </mxCell>
        <mxCell id="xWYTEu3ynr3bzuGR5dAI-71" value="email" style="shape=partialRectangle;connectable=0;fillColor=none;top=0;left=0;bottom=0;right=0;align=left;spacingLeft=6;overflow=hidden;" vertex="1" parent="1">
          <mxGeometry x="360" y="-313" width="150" height="30" as="geometry" />
        </mxCell>
        <mxCell id="xWYTEu3ynr3bzuGR5dAI-72" value="phone" style="shape=partialRectangle;connectable=0;fillColor=none;top=0;left=0;bottom=0;right=0;align=left;spacingLeft=6;overflow=hidden;" vertex="1" parent="1">
          <mxGeometry x="360" y="-283" width="150" height="30" as="geometry" />
        </mxCell>
        <mxCell id="xWYTEu3ynr3bzuGR5dAI-73" value="avatar" style="shape=partialRectangle;connectable=0;fillColor=none;top=0;left=0;bottom=0;right=0;align=left;spacingLeft=6;overflow=hidden;" vertex="1" parent="1">
          <mxGeometry x="360" y="-253" width="150" height="30" as="geometry" />
        </mxCell>
        <mxCell id="xWYTEu3ynr3bzuGR5dAI-74" value="account_id" style="shape=partialRectangle;connectable=0;fillColor=none;top=0;left=0;bottom=0;right=0;align=left;spacingLeft=6;overflow=hidden;" vertex="1" parent="1">
          <mxGeometry x="360" y="-223" width="150" height="30" as="geometry" />
        </mxCell>
        <mxCell id="xWYTEu3ynr3bzuGR5dAI-75" value="Topic" style="shape=table;startSize=30;container=1;collapsible=1;childLayout=tableLayout;fixedRows=1;rowLines=0;fontStyle=1;align=center;resizeLast=1;" vertex="1" parent="1">
          <mxGeometry x="50" y="-900" width="180" height="160" as="geometry" />
        </mxCell>
        <mxCell id="xWYTEu3ynr3bzuGR5dAI-76" value="" style="shape=partialRectangle;collapsible=0;dropTarget=0;pointerEvents=0;fillColor=none;top=0;left=0;bottom=1;right=0;points=[[0,0.5],[1,0.5]];portConstraint=eastwest;" vertex="1" parent="xWYTEu3ynr3bzuGR5dAI-75">
          <mxGeometry y="30" width="180" height="30" as="geometry" />
        </mxCell>
        <mxCell id="xWYTEu3ynr3bzuGR5dAI-77" value="PK" style="shape=partialRectangle;connectable=0;fillColor=none;top=0;left=0;bottom=0;right=0;fontStyle=1;overflow=hidden;" vertex="1" parent="xWYTEu3ynr3bzuGR5dAI-76">
          <mxGeometry width="30" height="30" as="geometry" />
        </mxCell>
        <mxCell id="xWYTEu3ynr3bzuGR5dAI-78" value="UniqueID" style="shape=partialRectangle;connectable=0;fillColor=none;top=0;left=0;bottom=0;right=0;align=left;spacingLeft=6;fontStyle=5;overflow=hidden;" vertex="1" parent="xWYTEu3ynr3bzuGR5dAI-76">
          <mxGeometry x="30" width="150" height="30" as="geometry" />
        </mxCell>
        <mxCell id="xWYTEu3ynr3bzuGR5dAI-79" value="" style="shape=partialRectangle;collapsible=0;dropTarget=0;pointerEvents=0;fillColor=none;top=0;left=0;bottom=0;right=0;points=[[0,0.5],[1,0.5]];portConstraint=eastwest;" vertex="1" parent="xWYTEu3ynr3bzuGR5dAI-75">
          <mxGeometry y="60" width="180" height="30" as="geometry" />
        </mxCell>
        <mxCell id="xWYTEu3ynr3bzuGR5dAI-80" value="" style="shape=partialRectangle;connectable=0;fillColor=none;top=0;left=0;bottom=0;right=0;editable=1;overflow=hidden;" vertex="1" parent="xWYTEu3ynr3bzuGR5dAI-79">
          <mxGeometry width="30" height="30" as="geometry" />
        </mxCell>
        <mxCell id="xWYTEu3ynr3bzuGR5dAI-81" value="id" style="shape=partialRectangle;connectable=0;fillColor=none;top=0;left=0;bottom=0;right=0;align=left;spacingLeft=6;overflow=hidden;" vertex="1" parent="xWYTEu3ynr3bzuGR5dAI-79">
          <mxGeometry x="30" width="150" height="30" as="geometry" />
        </mxCell>
        <mxCell id="xWYTEu3ynr3bzuGR5dAI-82" value="" style="shape=partialRectangle;collapsible=0;dropTarget=0;pointerEvents=0;fillColor=none;top=0;left=0;bottom=0;right=0;points=[[0,0.5],[1,0.5]];portConstraint=eastwest;" vertex="1" parent="xWYTEu3ynr3bzuGR5dAI-75">
          <mxGeometry y="90" width="180" height="30" as="geometry" />
        </mxCell>
        <mxCell id="xWYTEu3ynr3bzuGR5dAI-83" value="" style="shape=partialRectangle;connectable=0;fillColor=none;top=0;left=0;bottom=0;right=0;editable=1;overflow=hidden;" vertex="1" parent="xWYTEu3ynr3bzuGR5dAI-82">
          <mxGeometry width="30" height="30" as="geometry" />
        </mxCell>
        <mxCell id="xWYTEu3ynr3bzuGR5dAI-84" value="name" style="shape=partialRectangle;connectable=0;fillColor=none;top=0;left=0;bottom=0;right=0;align=left;spacingLeft=6;overflow=hidden;" vertex="1" parent="xWYTEu3ynr3bzuGR5dAI-82">
          <mxGeometry x="30" width="150" height="30" as="geometry" />
        </mxCell>
        <mxCell id="xWYTEu3ynr3bzuGR5dAI-85" value="" style="shape=partialRectangle;collapsible=0;dropTarget=0;pointerEvents=0;fillColor=none;top=0;left=0;bottom=0;right=0;points=[[0,0.5],[1,0.5]];portConstraint=eastwest;" vertex="1" parent="xWYTEu3ynr3bzuGR5dAI-75">
          <mxGeometry y="120" width="180" height="30" as="geometry" />
        </mxCell>
        <mxCell id="xWYTEu3ynr3bzuGR5dAI-86" value="" style="shape=partialRectangle;connectable=0;fillColor=none;top=0;left=0;bottom=0;right=0;editable=1;overflow=hidden;" vertex="1" parent="xWYTEu3ynr3bzuGR5dAI-85">
          <mxGeometry width="30" height="30" as="geometry" />
        </mxCell>
        <mxCell id="xWYTEu3ynr3bzuGR5dAI-87" value="" style="shape=partialRectangle;connectable=0;fillColor=none;top=0;left=0;bottom=0;right=0;align=left;spacingLeft=6;overflow=hidden;" vertex="1" parent="xWYTEu3ynr3bzuGR5dAI-85">
          <mxGeometry x="30" width="150" height="30" as="geometry" />
        </mxCell>
        <mxCell id="xWYTEu3ynr3bzuGR5dAI-88" value="Group" style="shape=table;startSize=30;container=1;collapsible=1;childLayout=tableLayout;fixedRows=1;rowLines=0;fontStyle=1;align=center;resizeLast=1;" vertex="1" parent="1">
          <mxGeometry x="30" y="-383" width="180" height="160" as="geometry" />
        </mxCell>
        <mxCell id="xWYTEu3ynr3bzuGR5dAI-89" value="" style="shape=partialRectangle;collapsible=0;dropTarget=0;pointerEvents=0;fillColor=none;top=0;left=0;bottom=1;right=0;points=[[0,0.5],[1,0.5]];portConstraint=eastwest;" vertex="1" parent="xWYTEu3ynr3bzuGR5dAI-88">
          <mxGeometry y="30" width="180" height="30" as="geometry" />
        </mxCell>
        <mxCell id="xWYTEu3ynr3bzuGR5dAI-90" value="PK" style="shape=partialRectangle;connectable=0;fillColor=none;top=0;left=0;bottom=0;right=0;fontStyle=1;overflow=hidden;" vertex="1" parent="xWYTEu3ynr3bzuGR5dAI-89">
          <mxGeometry width="30" height="30" as="geometry" />
        </mxCell>
        <mxCell id="xWYTEu3ynr3bzuGR5dAI-91" value="UniqueID" style="shape=partialRectangle;connectable=0;fillColor=none;top=0;left=0;bottom=0;right=0;align=left;spacingLeft=6;fontStyle=5;overflow=hidden;" vertex="1" parent="xWYTEu3ynr3bzuGR5dAI-89">
          <mxGeometry x="30" width="150" height="30" as="geometry" />
        </mxCell>
        <mxCell id="xWYTEu3ynr3bzuGR5dAI-92" value="" style="shape=partialRectangle;collapsible=0;dropTarget=0;pointerEvents=0;fillColor=none;top=0;left=0;bottom=0;right=0;points=[[0,0.5],[1,0.5]];portConstraint=eastwest;" vertex="1" parent="xWYTEu3ynr3bzuGR5dAI-88">
          <mxGeometry y="60" width="180" height="30" as="geometry" />
        </mxCell>
        <mxCell id="xWYTEu3ynr3bzuGR5dAI-93" value="" style="shape=partialRectangle;connectable=0;fillColor=none;top=0;left=0;bottom=0;right=0;editable=1;overflow=hidden;" vertex="1" parent="xWYTEu3ynr3bzuGR5dAI-92">
          <mxGeometry width="30" height="30" as="geometry" />
        </mxCell>
        <mxCell id="xWYTEu3ynr3bzuGR5dAI-94" value="id" style="shape=partialRectangle;connectable=0;fillColor=none;top=0;left=0;bottom=0;right=0;align=left;spacingLeft=6;overflow=hidden;" vertex="1" parent="xWYTEu3ynr3bzuGR5dAI-92">
          <mxGeometry x="30" width="150" height="30" as="geometry" />
        </mxCell>
        <mxCell id="xWYTEu3ynr3bzuGR5dAI-95" value="" style="shape=partialRectangle;collapsible=0;dropTarget=0;pointerEvents=0;fillColor=none;top=0;left=0;bottom=0;right=0;points=[[0,0.5],[1,0.5]];portConstraint=eastwest;" vertex="1" parent="xWYTEu3ynr3bzuGR5dAI-88">
          <mxGeometry y="90" width="180" height="30" as="geometry" />
        </mxCell>
        <mxCell id="xWYTEu3ynr3bzuGR5dAI-96" value="" style="shape=partialRectangle;connectable=0;fillColor=none;top=0;left=0;bottom=0;right=0;editable=1;overflow=hidden;" vertex="1" parent="xWYTEu3ynr3bzuGR5dAI-95">
          <mxGeometry width="30" height="30" as="geometry" />
        </mxCell>
        <mxCell id="xWYTEu3ynr3bzuGR5dAI-97" value="name" style="shape=partialRectangle;connectable=0;fillColor=none;top=0;left=0;bottom=0;right=0;align=left;spacingLeft=6;overflow=hidden;" vertex="1" parent="xWYTEu3ynr3bzuGR5dAI-95">
          <mxGeometry x="30" width="150" height="30" as="geometry" />
        </mxCell>
        <mxCell id="xWYTEu3ynr3bzuGR5dAI-98" value="" style="shape=partialRectangle;collapsible=0;dropTarget=0;pointerEvents=0;fillColor=none;top=0;left=0;bottom=0;right=0;points=[[0,0.5],[1,0.5]];portConstraint=eastwest;" vertex="1" parent="xWYTEu3ynr3bzuGR5dAI-88">
          <mxGeometry y="120" width="180" height="30" as="geometry" />
        </mxCell>
        <mxCell id="xWYTEu3ynr3bzuGR5dAI-99" value="" style="shape=partialRectangle;connectable=0;fillColor=none;top=0;left=0;bottom=0;right=0;editable=1;overflow=hidden;" vertex="1" parent="xWYTEu3ynr3bzuGR5dAI-98">
          <mxGeometry width="30" height="30" as="geometry" />
        </mxCell>
        <mxCell id="xWYTEu3ynr3bzuGR5dAI-100" value="leader_id" style="shape=partialRectangle;connectable=0;fillColor=none;top=0;left=0;bottom=0;right=0;align=left;spacingLeft=6;overflow=hidden;" vertex="1" parent="xWYTEu3ynr3bzuGR5dAI-98">
          <mxGeometry x="30" width="150" height="30" as="geometry" />
        </mxCell>
        <mxCell id="xWYTEu3ynr3bzuGR5dAI-115" value="Process" style="shape=table;startSize=30;container=1;collapsible=1;childLayout=tableLayout;fixedRows=1;rowLines=0;fontStyle=1;align=center;resizeLast=1;" vertex="1" parent="1">
          <mxGeometry x="380" y="-800" width="180" height="270" as="geometry" />
        </mxCell>
        <mxCell id="xWYTEu3ynr3bzuGR5dAI-116" value="" style="shape=partialRectangle;collapsible=0;dropTarget=0;pointerEvents=0;fillColor=none;top=0;left=0;bottom=1;right=0;points=[[0,0.5],[1,0.5]];portConstraint=eastwest;" vertex="1" parent="xWYTEu3ynr3bzuGR5dAI-115">
          <mxGeometry y="30" width="180" height="30" as="geometry" />
        </mxCell>
        <mxCell id="xWYTEu3ynr3bzuGR5dAI-117" value="PK" style="shape=partialRectangle;connectable=0;fillColor=none;top=0;left=0;bottom=0;right=0;fontStyle=1;overflow=hidden;" vertex="1" parent="xWYTEu3ynr3bzuGR5dAI-116">
          <mxGeometry width="30" height="30" as="geometry" />
        </mxCell>
        <mxCell id="xWYTEu3ynr3bzuGR5dAI-118" value="UniqueID" style="shape=partialRectangle;connectable=0;fillColor=none;top=0;left=0;bottom=0;right=0;align=left;spacingLeft=6;fontStyle=5;overflow=hidden;" vertex="1" parent="xWYTEu3ynr3bzuGR5dAI-116">
          <mxGeometry x="30" width="150" height="30" as="geometry" />
        </mxCell>
        <mxCell id="xWYTEu3ynr3bzuGR5dAI-119" value="" style="shape=partialRectangle;collapsible=0;dropTarget=0;pointerEvents=0;fillColor=none;top=0;left=0;bottom=0;right=0;points=[[0,0.5],[1,0.5]];portConstraint=eastwest;" vertex="1" parent="xWYTEu3ynr3bzuGR5dAI-115">
          <mxGeometry y="60" width="180" height="30" as="geometry" />
        </mxCell>
        <mxCell id="xWYTEu3ynr3bzuGR5dAI-120" value="" style="shape=partialRectangle;connectable=0;fillColor=none;top=0;left=0;bottom=0;right=0;editable=1;overflow=hidden;" vertex="1" parent="xWYTEu3ynr3bzuGR5dAI-119">
          <mxGeometry width="30" height="30" as="geometry" />
        </mxCell>
        <mxCell id="xWYTEu3ynr3bzuGR5dAI-121" value="register_topic_id" style="shape=partialRectangle;connectable=0;fillColor=none;top=0;left=0;bottom=0;right=0;align=left;spacingLeft=6;overflow=hidden;" vertex="1" parent="xWYTEu3ynr3bzuGR5dAI-119">
          <mxGeometry x="30" width="150" height="30" as="geometry" />
        </mxCell>
        <mxCell id="xWYTEu3ynr3bzuGR5dAI-122" value="" style="shape=partialRectangle;collapsible=0;dropTarget=0;pointerEvents=0;fillColor=none;top=0;left=0;bottom=0;right=0;points=[[0,0.5],[1,0.5]];portConstraint=eastwest;" vertex="1" parent="xWYTEu3ynr3bzuGR5dAI-115">
          <mxGeometry y="90" width="180" height="30" as="geometry" />
        </mxCell>
        <mxCell id="xWYTEu3ynr3bzuGR5dAI-123" value="" style="shape=partialRectangle;connectable=0;fillColor=none;top=0;left=0;bottom=0;right=0;editable=1;overflow=hidden;" vertex="1" parent="xWYTEu3ynr3bzuGR5dAI-122">
          <mxGeometry width="30" height="30" as="geometry" />
        </mxCell>
        <mxCell id="xWYTEu3ynr3bzuGR5dAI-124" value="date_start" style="shape=partialRectangle;connectable=0;fillColor=none;top=0;left=0;bottom=0;right=0;align=left;spacingLeft=6;overflow=hidden;" vertex="1" parent="xWYTEu3ynr3bzuGR5dAI-122">
          <mxGeometry x="30" width="150" height="30" as="geometry" />
        </mxCell>
        <mxCell id="xWYTEu3ynr3bzuGR5dAI-125" value="" style="shape=partialRectangle;collapsible=0;dropTarget=0;pointerEvents=0;fillColor=none;top=0;left=0;bottom=0;right=0;points=[[0,0.5],[1,0.5]];portConstraint=eastwest;" vertex="1" parent="xWYTEu3ynr3bzuGR5dAI-115">
          <mxGeometry y="120" width="180" height="30" as="geometry" />
        </mxCell>
        <mxCell id="xWYTEu3ynr3bzuGR5dAI-126" value="" style="shape=partialRectangle;connectable=0;fillColor=none;top=0;left=0;bottom=0;right=0;editable=1;overflow=hidden;" vertex="1" parent="xWYTEu3ynr3bzuGR5dAI-125">
          <mxGeometry width="30" height="30" as="geometry" />
        </mxCell>
        <mxCell id="xWYTEu3ynr3bzuGR5dAI-127" value="date_end" style="shape=partialRectangle;connectable=0;fillColor=none;top=0;left=0;bottom=0;right=0;align=left;spacingLeft=6;overflow=hidden;" vertex="1" parent="xWYTEu3ynr3bzuGR5dAI-125">
          <mxGeometry x="30" width="150" height="30" as="geometry" />
        </mxCell>
        <mxCell id="xWYTEu3ynr3bzuGR5dAI-128" value="precent_process" style="shape=partialRectangle;connectable=0;fillColor=none;top=0;left=0;bottom=0;right=0;align=left;spacingLeft=6;overflow=hidden;" vertex="1" parent="1">
          <mxGeometry x="410" y="-650" width="150" height="30" as="geometry" />
        </mxCell>
        <mxCell id="xWYTEu3ynr3bzuGR5dAI-130" value="Upload_File" style="shape=table;startSize=30;container=1;collapsible=1;childLayout=tableLayout;fixedRows=1;rowLines=0;fontStyle=1;align=center;resizeLast=1;" vertex="1" parent="1">
          <mxGeometry x="720" y="-730" width="180" height="160" as="geometry" />
        </mxCell>
        <mxCell id="xWYTEu3ynr3bzuGR5dAI-131" value="" style="shape=partialRectangle;collapsible=0;dropTarget=0;pointerEvents=0;fillColor=none;top=0;left=0;bottom=1;right=0;points=[[0,0.5],[1,0.5]];portConstraint=eastwest;" vertex="1" parent="xWYTEu3ynr3bzuGR5dAI-130">
          <mxGeometry y="30" width="180" height="30" as="geometry" />
        </mxCell>
        <mxCell id="xWYTEu3ynr3bzuGR5dAI-132" value="PK" style="shape=partialRectangle;connectable=0;fillColor=none;top=0;left=0;bottom=0;right=0;fontStyle=1;overflow=hidden;" vertex="1" parent="xWYTEu3ynr3bzuGR5dAI-131">
          <mxGeometry width="30" height="30" as="geometry" />
        </mxCell>
        <mxCell id="xWYTEu3ynr3bzuGR5dAI-133" value="UniqueID" style="shape=partialRectangle;connectable=0;fillColor=none;top=0;left=0;bottom=0;right=0;align=left;spacingLeft=6;fontStyle=5;overflow=hidden;" vertex="1" parent="xWYTEu3ynr3bzuGR5dAI-131">
          <mxGeometry x="30" width="150" height="30" as="geometry" />
        </mxCell>
        <mxCell id="xWYTEu3ynr3bzuGR5dAI-134" value="" style="shape=partialRectangle;collapsible=0;dropTarget=0;pointerEvents=0;fillColor=none;top=0;left=0;bottom=0;right=0;points=[[0,0.5],[1,0.5]];portConstraint=eastwest;" vertex="1" parent="xWYTEu3ynr3bzuGR5dAI-130">
          <mxGeometry y="60" width="180" height="30" as="geometry" />
        </mxCell>
        <mxCell id="xWYTEu3ynr3bzuGR5dAI-135" value="" style="shape=partialRectangle;connectable=0;fillColor=none;top=0;left=0;bottom=0;right=0;editable=1;overflow=hidden;" vertex="1" parent="xWYTEu3ynr3bzuGR5dAI-134">
          <mxGeometry width="30" height="30" as="geometry" />
        </mxCell>
        <mxCell id="xWYTEu3ynr3bzuGR5dAI-136" value="process_id" style="shape=partialRectangle;connectable=0;fillColor=none;top=0;left=0;bottom=0;right=0;align=left;spacingLeft=6;overflow=hidden;" vertex="1" parent="xWYTEu3ynr3bzuGR5dAI-134">
          <mxGeometry x="30" width="150" height="30" as="geometry" />
        </mxCell>
        <mxCell id="xWYTEu3ynr3bzuGR5dAI-137" value="" style="shape=partialRectangle;collapsible=0;dropTarget=0;pointerEvents=0;fillColor=none;top=0;left=0;bottom=0;right=0;points=[[0,0.5],[1,0.5]];portConstraint=eastwest;" vertex="1" parent="xWYTEu3ynr3bzuGR5dAI-130">
          <mxGeometry y="90" width="180" height="30" as="geometry" />
        </mxCell>
        <mxCell id="xWYTEu3ynr3bzuGR5dAI-138" value="" style="shape=partialRectangle;connectable=0;fillColor=none;top=0;left=0;bottom=0;right=0;editable=1;overflow=hidden;" vertex="1" parent="xWYTEu3ynr3bzuGR5dAI-137">
          <mxGeometry width="30" height="30" as="geometry" />
        </mxCell>
        <mxCell id="xWYTEu3ynr3bzuGR5dAI-139" value="url" style="shape=partialRectangle;connectable=0;fillColor=none;top=0;left=0;bottom=0;right=0;align=left;spacingLeft=6;overflow=hidden;" vertex="1" parent="xWYTEu3ynr3bzuGR5dAI-137">
          <mxGeometry x="30" width="150" height="30" as="geometry" />
        </mxCell>
        <mxCell id="xWYTEu3ynr3bzuGR5dAI-140" value="" style="shape=partialRectangle;collapsible=0;dropTarget=0;pointerEvents=0;fillColor=none;top=0;left=0;bottom=0;right=0;points=[[0,0.5],[1,0.5]];portConstraint=eastwest;" vertex="1" parent="xWYTEu3ynr3bzuGR5dAI-130">
          <mxGeometry y="120" width="180" height="30" as="geometry" />
        </mxCell>
        <mxCell id="xWYTEu3ynr3bzuGR5dAI-141" value="" style="shape=partialRectangle;connectable=0;fillColor=none;top=0;left=0;bottom=0;right=0;editable=1;overflow=hidden;" vertex="1" parent="xWYTEu3ynr3bzuGR5dAI-140">
          <mxGeometry width="30" height="30" as="geometry" />
        </mxCell>
        <mxCell id="xWYTEu3ynr3bzuGR5dAI-142" value="" style="shape=partialRectangle;connectable=0;fillColor=none;top=0;left=0;bottom=0;right=0;align=left;spacingLeft=6;overflow=hidden;" vertex="1" parent="xWYTEu3ynr3bzuGR5dAI-140">
          <mxGeometry x="30" width="150" height="30" as="geometry" />
        </mxCell>
        <mxCell id="xWYTEu3ynr3bzuGR5dAI-143" value="Comment" style="shape=table;startSize=30;container=1;collapsible=1;childLayout=tableLayout;fixedRows=1;rowLines=0;fontStyle=1;align=center;resizeLast=1;" vertex="1" parent="1">
          <mxGeometry x="40" y="-660" width="180" height="190" as="geometry" />
        </mxCell>
        <mxCell id="xWYTEu3ynr3bzuGR5dAI-144" value="" style="shape=partialRectangle;collapsible=0;dropTarget=0;pointerEvents=0;fillColor=none;top=0;left=0;bottom=1;right=0;points=[[0,0.5],[1,0.5]];portConstraint=eastwest;" vertex="1" parent="xWYTEu3ynr3bzuGR5dAI-143">
          <mxGeometry y="30" width="180" height="30" as="geometry" />
        </mxCell>
        <mxCell id="xWYTEu3ynr3bzuGR5dAI-145" value="PK" style="shape=partialRectangle;connectable=0;fillColor=none;top=0;left=0;bottom=0;right=0;fontStyle=1;overflow=hidden;" vertex="1" parent="xWYTEu3ynr3bzuGR5dAI-144">
          <mxGeometry width="30" height="30" as="geometry" />
        </mxCell>
        <mxCell id="xWYTEu3ynr3bzuGR5dAI-146" value="UniqueID" style="shape=partialRectangle;connectable=0;fillColor=none;top=0;left=0;bottom=0;right=0;align=left;spacingLeft=6;fontStyle=5;overflow=hidden;" vertex="1" parent="xWYTEu3ynr3bzuGR5dAI-144">
          <mxGeometry x="30" width="150" height="30" as="geometry" />
        </mxCell>
        <mxCell id="xWYTEu3ynr3bzuGR5dAI-147" value="" style="shape=partialRectangle;collapsible=0;dropTarget=0;pointerEvents=0;fillColor=none;top=0;left=0;bottom=0;right=0;points=[[0,0.5],[1,0.5]];portConstraint=eastwest;" vertex="1" parent="xWYTEu3ynr3bzuGR5dAI-143">
          <mxGeometry y="60" width="180" height="30" as="geometry" />
        </mxCell>
        <mxCell id="xWYTEu3ynr3bzuGR5dAI-148" value="" style="shape=partialRectangle;connectable=0;fillColor=none;top=0;left=0;bottom=0;right=0;editable=1;overflow=hidden;" vertex="1" parent="xWYTEu3ynr3bzuGR5dAI-147">
          <mxGeometry width="30" height="30" as="geometry" />
        </mxCell>
        <mxCell id="xWYTEu3ynr3bzuGR5dAI-149" value="content" style="shape=partialRectangle;connectable=0;fillColor=none;top=0;left=0;bottom=0;right=0;align=left;spacingLeft=6;overflow=hidden;" vertex="1" parent="xWYTEu3ynr3bzuGR5dAI-147">
          <mxGeometry x="30" width="150" height="30" as="geometry" />
        </mxCell>
        <mxCell id="xWYTEu3ynr3bzuGR5dAI-150" value="" style="shape=partialRectangle;collapsible=0;dropTarget=0;pointerEvents=0;fillColor=none;top=0;left=0;bottom=0;right=0;points=[[0,0.5],[1,0.5]];portConstraint=eastwest;" vertex="1" parent="xWYTEu3ynr3bzuGR5dAI-143">
          <mxGeometry y="90" width="180" height="30" as="geometry" />
        </mxCell>
        <mxCell id="xWYTEu3ynr3bzuGR5dAI-151" value="" style="shape=partialRectangle;connectable=0;fillColor=none;top=0;left=0;bottom=0;right=0;editable=1;overflow=hidden;" vertex="1" parent="xWYTEu3ynr3bzuGR5dAI-150">
          <mxGeometry width="30" height="30" as="geometry" />
        </mxCell>
        <mxCell id="xWYTEu3ynr3bzuGR5dAI-152" value="time_comment" style="shape=partialRectangle;connectable=0;fillColor=none;top=0;left=0;bottom=0;right=0;align=left;spacingLeft=6;overflow=hidden;" vertex="1" parent="xWYTEu3ynr3bzuGR5dAI-150">
          <mxGeometry x="30" width="150" height="30" as="geometry" />
        </mxCell>
        <mxCell id="xWYTEu3ynr3bzuGR5dAI-153" value="" style="shape=partialRectangle;collapsible=0;dropTarget=0;pointerEvents=0;fillColor=none;top=0;left=0;bottom=0;right=0;points=[[0,0.5],[1,0.5]];portConstraint=eastwest;" vertex="1" parent="xWYTEu3ynr3bzuGR5dAI-143">
          <mxGeometry y="120" width="180" height="30" as="geometry" />
        </mxCell>
        <mxCell id="xWYTEu3ynr3bzuGR5dAI-154" value="" style="shape=partialRectangle;connectable=0;fillColor=none;top=0;left=0;bottom=0;right=0;editable=1;overflow=hidden;" vertex="1" parent="xWYTEu3ynr3bzuGR5dAI-153">
          <mxGeometry width="30" height="30" as="geometry" />
        </mxCell>
        <mxCell id="xWYTEu3ynr3bzuGR5dAI-155" value="title" style="shape=partialRectangle;connectable=0;fillColor=none;top=0;left=0;bottom=0;right=0;align=left;spacingLeft=6;overflow=hidden;" vertex="1" parent="xWYTEu3ynr3bzuGR5dAI-153">
          <mxGeometry x="30" width="150" height="30" as="geometry" />
        </mxCell>
        <mxCell id="xWYTEu3ynr3bzuGR5dAI-156" value="" style="edgeStyle=entityRelationEdgeStyle;fontSize=12;html=1;endArrow=ERmany;startArrow=ERmany;exitX=0;exitY=0.5;exitDx=0;exitDy=0;entryX=1;entryY=0.5;entryDx=0;entryDy=0;" edge="1" parent="1" source="xWYTEu3ynr3bzuGR5dAI-27" target="xWYTEu3ynr3bzuGR5dAI-20">
          <mxGeometry width="100" height="100" relative="1" as="geometry">
            <mxPoint x="550" y="200" as="sourcePoint" />
            <mxPoint x="650" y="100" as="targetPoint" />
          </mxGeometry>
        </mxCell>
        <mxCell id="xWYTEu3ynr3bzuGR5dAI-157" value="" style="edgeStyle=entityRelationEdgeStyle;fontSize=12;html=1;endArrow=ERmandOne;startArrow=ERmandOne;exitX=0;exitY=0.5;exitDx=0;exitDy=0;entryX=0.5;entryY=1;entryDx=0;entryDy=0;" edge="1" parent="1" source="xWYTEu3ynr3bzuGR5dAI-14" target="xWYTEu3ynr3bzuGR5dAI-58">
          <mxGeometry width="100" height="100" relative="1" as="geometry">
            <mxPoint x="550" y="-100" as="sourcePoint" />
            <mxPoint x="650" y="-200" as="targetPoint" />
          </mxGeometry>
        </mxCell>
        <mxCell id="xWYTEu3ynr3bzuGR5dAI-158" value="" style="edgeStyle=entityRelationEdgeStyle;fontSize=12;html=1;endArrow=ERmandOne;startArrow=ERmandOne;exitX=1;exitY=0.5;exitDx=0;exitDy=0;entryX=0.5;entryY=1;entryDx=0;entryDy=0;" edge="1" parent="1" source="xWYTEu3ynr3bzuGR5dAI-14" target="xWYTEu3ynr3bzuGR5dAI-39">
          <mxGeometry width="100" height="100" relative="1" as="geometry">
            <mxPoint x="550" y="-100" as="sourcePoint" />
            <mxPoint x="650" y="-200" as="targetPoint" />
          </mxGeometry>
        </mxCell>
        <mxCell id="xWYTEu3ynr3bzuGR5dAI-159" value="group_id" style="shape=partialRectangle;connectable=0;fillColor=none;top=0;left=0;bottom=0;right=0;align=left;spacingLeft=6;overflow=hidden;" vertex="1" parent="1">
          <mxGeometry x="360" y="-193" width="150" height="30" as="geometry" />
        </mxCell>
        <mxCell id="xWYTEu3ynr3bzuGR5dAI-166" value="Notification" style="shape=table;startSize=30;container=1;collapsible=1;childLayout=tableLayout;fixedRows=1;rowLines=0;fontStyle=1;align=center;resizeLast=1;" vertex="1" parent="1">
          <mxGeometry x="190" y="-20" width="180" height="160" as="geometry" />
        </mxCell>
        <mxCell id="xWYTEu3ynr3bzuGR5dAI-167" value="" style="shape=partialRectangle;collapsible=0;dropTarget=0;pointerEvents=0;fillColor=none;top=0;left=0;bottom=1;right=0;points=[[0,0.5],[1,0.5]];portConstraint=eastwest;" vertex="1" parent="xWYTEu3ynr3bzuGR5dAI-166">
          <mxGeometry y="30" width="180" height="30" as="geometry" />
        </mxCell>
        <mxCell id="xWYTEu3ynr3bzuGR5dAI-168" value="PK" style="shape=partialRectangle;connectable=0;fillColor=none;top=0;left=0;bottom=0;right=0;fontStyle=1;overflow=hidden;" vertex="1" parent="xWYTEu3ynr3bzuGR5dAI-167">
          <mxGeometry width="30" height="30" as="geometry" />
        </mxCell>
        <mxCell id="xWYTEu3ynr3bzuGR5dAI-169" value="UniqueID" style="shape=partialRectangle;connectable=0;fillColor=none;top=0;left=0;bottom=0;right=0;align=left;spacingLeft=6;fontStyle=5;overflow=hidden;" vertex="1" parent="xWYTEu3ynr3bzuGR5dAI-167">
          <mxGeometry x="30" width="150" height="30" as="geometry" />
        </mxCell>
        <mxCell id="xWYTEu3ynr3bzuGR5dAI-170" value="" style="shape=partialRectangle;collapsible=0;dropTarget=0;pointerEvents=0;fillColor=none;top=0;left=0;bottom=0;right=0;points=[[0,0.5],[1,0.5]];portConstraint=eastwest;" vertex="1" parent="xWYTEu3ynr3bzuGR5dAI-166">
          <mxGeometry y="60" width="180" height="30" as="geometry" />
        </mxCell>
        <mxCell id="xWYTEu3ynr3bzuGR5dAI-171" value="" style="shape=partialRectangle;connectable=0;fillColor=none;top=0;left=0;bottom=0;right=0;editable=1;overflow=hidden;" vertex="1" parent="xWYTEu3ynr3bzuGR5dAI-170">
          <mxGeometry width="30" height="30" as="geometry" />
        </mxCell>
        <mxCell id="xWYTEu3ynr3bzuGR5dAI-172" value="content" style="shape=partialRectangle;connectable=0;fillColor=none;top=0;left=0;bottom=0;right=0;align=left;spacingLeft=6;overflow=hidden;" vertex="1" parent="xWYTEu3ynr3bzuGR5dAI-170">
          <mxGeometry x="30" width="150" height="30" as="geometry" />
        </mxCell>
        <mxCell id="xWYTEu3ynr3bzuGR5dAI-173" value="" style="shape=partialRectangle;collapsible=0;dropTarget=0;pointerEvents=0;fillColor=none;top=0;left=0;bottom=0;right=0;points=[[0,0.5],[1,0.5]];portConstraint=eastwest;" vertex="1" parent="xWYTEu3ynr3bzuGR5dAI-166">
          <mxGeometry y="90" width="180" height="30" as="geometry" />
        </mxCell>
        <mxCell id="xWYTEu3ynr3bzuGR5dAI-174" value="" style="shape=partialRectangle;connectable=0;fillColor=none;top=0;left=0;bottom=0;right=0;editable=1;overflow=hidden;" vertex="1" parent="xWYTEu3ynr3bzuGR5dAI-173">
          <mxGeometry width="30" height="30" as="geometry" />
        </mxCell>
        <mxCell id="xWYTEu3ynr3bzuGR5dAI-175" value="time_notification" style="shape=partialRectangle;connectable=0;fillColor=none;top=0;left=0;bottom=0;right=0;align=left;spacingLeft=6;overflow=hidden;" vertex="1" parent="xWYTEu3ynr3bzuGR5dAI-173">
          <mxGeometry x="30" width="150" height="30" as="geometry" />
        </mxCell>
        <mxCell id="xWYTEu3ynr3bzuGR5dAI-176" value="" style="shape=partialRectangle;collapsible=0;dropTarget=0;pointerEvents=0;fillColor=none;top=0;left=0;bottom=0;right=0;points=[[0,0.5],[1,0.5]];portConstraint=eastwest;" vertex="1" parent="xWYTEu3ynr3bzuGR5dAI-166">
          <mxGeometry y="120" width="180" height="30" as="geometry" />
        </mxCell>
        <mxCell id="xWYTEu3ynr3bzuGR5dAI-177" value="" style="shape=partialRectangle;connectable=0;fillColor=none;top=0;left=0;bottom=0;right=0;editable=1;overflow=hidden;" vertex="1" parent="xWYTEu3ynr3bzuGR5dAI-176">
          <mxGeometry width="30" height="30" as="geometry" />
        </mxCell>
        <mxCell id="xWYTEu3ynr3bzuGR5dAI-178" value="account_id" style="shape=partialRectangle;connectable=0;fillColor=none;top=0;left=0;bottom=0;right=0;align=left;spacingLeft=6;overflow=hidden;" vertex="1" parent="xWYTEu3ynr3bzuGR5dAI-176">
          <mxGeometry x="30" width="150" height="30" as="geometry" />
        </mxCell>
        <mxCell id="xWYTEu3ynr3bzuGR5dAI-179" value="reply_comment_id" style="shape=partialRectangle;connectable=0;fillColor=none;top=0;left=0;bottom=0;right=0;align=left;spacingLeft=6;overflow=hidden;" vertex="1" parent="1">
          <mxGeometry x="70" y="-510" width="150" height="30" as="geometry" />
        </mxCell>
        <mxCell id="xWYTEu3ynr3bzuGR5dAI-180" value="" style="edgeStyle=entityRelationEdgeStyle;fontSize=12;html=1;endArrow=ERmandOne;startArrow=ERmandOne;exitX=0.25;exitY=0;exitDx=0;exitDy=0;entryX=0.75;entryY=0;entryDx=0;entryDy=0;" edge="1" parent="1" source="xWYTEu3ynr3bzuGR5dAI-143" target="xWYTEu3ynr3bzuGR5dAI-143">
          <mxGeometry width="100" height="100" relative="1" as="geometry">
            <mxPoint x="-50" y="-450" as="sourcePoint" />
            <mxPoint x="50" y="-550" as="targetPoint" />
            <Array as="points">
              <mxPoint x="130" y="-700" />
            </Array>
          </mxGeometry>
        </mxCell>
        <mxCell id="xWYTEu3ynr3bzuGR5dAI-184" value="" style="edgeStyle=entityRelationEdgeStyle;fontSize=12;html=1;endArrow=ERoneToMany;startArrow=ERmandOne;exitX=1;exitY=0.5;exitDx=0;exitDy=0;entryX=0;entryY=0.5;entryDx=0;entryDy=0;" edge="1" parent="1" source="xWYTEu3ynr3bzuGR5dAI-85" target="xWYTEu3ynr3bzuGR5dAI-119">
          <mxGeometry width="100" height="100" relative="1" as="geometry">
            <mxPoint x="540" y="-730" as="sourcePoint" />
            <mxPoint x="330" y="-725" as="targetPoint" />
          </mxGeometry>
        </mxCell>
        <mxCell id="xWYTEu3ynr3bzuGR5dAI-185" value="" style="edgeStyle=entityRelationEdgeStyle;fontSize=12;html=1;endArrow=ERoneToMany;startArrow=ERmandOne;entryX=1;entryY=0.5;entryDx=0;entryDy=0;exitX=0;exitY=0.75;exitDx=0;exitDy=0;" edge="1" parent="1" source="xWYTEu3ynr3bzuGR5dAI-115" target="xWYTEu3ynr3bzuGR5dAI-153">
          <mxGeometry width="100" height="100" relative="1" as="geometry">
            <mxPoint x="310" y="-630" as="sourcePoint" />
            <mxPoint x="475" y="-850" as="targetPoint" />
          </mxGeometry>
        </mxCell>
        <mxCell id="xWYTEu3ynr3bzuGR5dAI-186" value="" style="edgeStyle=entityRelationEdgeStyle;fontSize=12;html=1;endArrow=ERoneToMany;startArrow=ERmandOne;exitX=0;exitY=0.5;exitDx=0;exitDy=0;entryX=0.75;entryY=1;entryDx=0;entryDy=0;" edge="1" parent="1" source="xWYTEu3ynr3bzuGR5dAI-43" target="xWYTEu3ynr3bzuGR5dAI-115">
          <mxGeometry width="100" height="100" relative="1" as="geometry">
            <mxPoint x="600" y="-410" as="sourcePoint" />
            <mxPoint x="510" y="-597.5" as="targetPoint" />
          </mxGeometry>
        </mxCell>
        <mxCell id="xWYTEu3ynr3bzuGR5dAI-187" value="" style="edgeStyle=entityRelationEdgeStyle;fontSize=12;html=1;endArrow=ERoneToMany;startArrow=ERmandOne;entryX=0;entryY=0.5;entryDx=0;entryDy=0;" edge="1" parent="1" target="xWYTEu3ynr3bzuGR5dAI-68">
          <mxGeometry width="100" height="100" relative="1" as="geometry">
            <mxPoint x="210" y="-283" as="sourcePoint" />
            <mxPoint x="310" y="-383" as="targetPoint" />
          </mxGeometry>
        </mxCell>
        <mxCell id="xWYTEu3ynr3bzuGR5dAI-188" value="" style="edgeStyle=entityRelationEdgeStyle;fontSize=12;html=1;endArrow=ERoneToMany;startArrow=ERmandOne;exitX=0;exitY=0.5;exitDx=0;exitDy=0;entryX=1;entryY=0.5;entryDx=0;entryDy=0;" edge="1" parent="1" source="xWYTEu3ynr3bzuGR5dAI-23" target="xWYTEu3ynr3bzuGR5dAI-173">
          <mxGeometry width="100" height="100" relative="1" as="geometry">
            <mxPoint x="540" y="70" as="sourcePoint" />
            <mxPoint x="640" y="-30" as="targetPoint" />
          </mxGeometry>
        </mxCell>
        <mxCell id="xWYTEu3ynr3bzuGR5dAI-189" value="" style="edgeStyle=entityRelationEdgeStyle;fontSize=12;html=1;endArrow=ERoneToMany;startArrow=ERmandOne;exitX=1;exitY=0.5;exitDx=0;exitDy=0;entryX=0;entryY=0.5;entryDx=0;entryDy=0;" edge="1" parent="1" source="xWYTEu3ynr3bzuGR5dAI-125" target="xWYTEu3ynr3bzuGR5dAI-134">
          <mxGeometry width="100" height="100" relative="1" as="geometry">
            <mxPoint x="540" y="-530" as="sourcePoint" />
            <mxPoint x="640" y="-630" as="targetPoint" />
          </mxGeometry>
        </mxCell>
      </root>
    </mxGraphModel>
  </diagram>
</mxfile>
